<svg width="20" height="21" viewBox="0 0 20 21" fill="none" xmlns="http://www.w3.org/2000/svg">
<path d="M18.8958 0.60791H1.10417C0.494167 0.60791 0 1.10208 0 1.71208V19.5046C0 20.1137 0.494167 20.6079 1.10417 20.6079H10.6833V12.8629H8.07667V9.84458H10.6833V7.61874C10.6833 5.03541 12.2608 3.62874 14.5658 3.62874C15.67 3.62874 16.6183 3.71124 16.895 3.74791V6.44791L15.2967 6.44874C14.0433 6.44874 13.8008 7.04458 13.8008 7.91791V9.84541H16.79L16.4008 12.8637H13.8008V20.6079H18.8975C19.5058 20.6079 20 20.1137 20 19.5037V1.71208C20 1.10208 19.5058 0.60791 18.8958 0.60791Z" fill="#24053E"/>
</svg>
