<svg width="20" height="21" viewBox="0 0 20 21" fill="none" xmlns="http://www.w3.org/2000/svg">
<path fill-rule="evenodd" clip-rule="evenodd" d="M10 0.60791C7.28417 0.60791 6.94417 0.619577 5.8775 0.66791C2.24583 0.834577 0.2275 2.84958 0.0608333 6.48458C0.0116667 7.55208 0 7.89208 0 10.6079C0 13.3237 0.0116667 13.6646 0.06 14.7312C0.226667 18.3629 2.24167 20.3812 5.87667 20.5479C6.94417 20.5962 7.28417 20.6079 10 20.6079C12.7158 20.6079 13.0567 20.5962 14.1233 20.5479C17.7517 20.3812 19.775 18.3662 19.9392 14.7312C19.9883 13.6646 20 13.3237 20 10.6079C20 7.89208 19.9883 7.55208 19.94 6.48541C19.7767 2.85708 17.7592 0.83541 14.1242 0.668743C13.0567 0.619577 12.7158 0.60791 10 0.60791ZM10 2.41041C12.67 2.41041 12.9867 2.42041 14.0417 2.46874C16.7517 2.59208 18.0175 3.87791 18.1408 6.56791C18.1892 7.62208 18.1983 7.93874 18.1983 10.6087C18.1983 13.2796 18.1883 13.5954 18.1408 14.6496C18.0167 17.3371 16.7542 18.6254 14.0417 18.7487C12.9867 18.7971 12.6717 18.8071 10 18.8071C7.33 18.8071 7.01333 18.7971 5.95917 18.7487C3.2425 18.6246 1.98333 17.3329 1.86 14.6487C1.81167 13.5946 1.80167 13.2787 1.80167 10.6079C1.80167 7.93791 1.8125 7.62208 1.86 6.56708C1.98417 3.87791 3.24667 2.59124 5.95917 2.46791C7.01417 2.42041 7.33 2.41041 10 2.41041ZM4.865 10.6079C4.865 7.77208 7.16417 5.47291 10 5.47291C12.8358 5.47291 15.135 7.77208 15.135 10.6079C15.135 13.4446 12.8358 15.7437 10 15.7437C7.16417 15.7437 4.865 13.4437 4.865 10.6079ZM10 13.9412C8.15917 13.9412 6.66667 12.4496 6.66667 10.6079C6.66667 8.76708 8.15917 7.27458 10 7.27458C11.8408 7.27458 13.3333 8.76708 13.3333 10.6079C13.3333 12.4496 11.8408 13.9412 10 13.9412ZM14.1375 5.27041C14.1375 4.60791 14.675 4.07041 15.3383 4.07041C16.0008 4.07041 16.5375 4.60791 16.5375 5.27041C16.5375 5.93291 16.0008 6.47041 15.3383 6.47041C14.675 6.47041 14.1375 5.93291 14.1375 5.27041Z" fill="#24053E"/>
</svg>
