<svg width="20" height="21" viewBox="0 0 20 21" fill="none" xmlns="http://www.w3.org/2000/svg">
<path d="M20 4.40561C19.2642 4.73228 18.4733 4.95228 17.6433 5.05145C18.4908 4.54395 19.1417 3.73978 19.4475 2.78145C18.655 3.25145 17.7767 3.59311 16.8417 3.77728C16.0942 2.97978 15.0267 2.48145 13.8467 2.48145C11.1975 2.48145 9.25083 4.95311 9.84917 7.51895C6.44 7.34811 3.41667 5.71478 1.3925 3.23228C0.3175 5.07645 0.835 7.48895 2.66167 8.71061C1.99 8.68895 1.35667 8.50478 0.804167 8.19728C0.759167 10.0981 2.12167 11.8764 4.095 12.2723C3.5175 12.4289 2.885 12.4656 2.24167 12.3423C2.76333 13.9723 4.27833 15.1581 6.075 15.1914C4.35 16.5439 2.17667 17.1481 0 16.8914C1.81583 18.0556 3.97333 18.7348 6.29 18.7348C13.9083 18.7348 18.2125 12.3006 17.9525 6.52978C18.7542 5.95061 19.45 5.22811 20 4.40561Z" fill="#24053E"/>
</svg>
